HIERARCHY
ROOT Hips
{
	OFFSET -32.860001 56.121803 44.745396
	CHANNELS 6 Xposition Yposition Zposition Zrotation Xrotation Yrotation
	JOINT Chest
	{
		OFFSET -0.637402 0.831600 5.390099
		CHANNELS 6 Xposition Yposition Zposition Zrotation Xrotation Yrotation
		JOINT Chest2
		{
			OFFSET 0.000000 0.000000 4.429901
			CHANNELS 6 Xposition Yposition Zposition Zrotation Xrotation Yrotation
			JOINT Neck
			{
				OFFSET 0.000000 0.000000 10.301395
				CHANNELS 6 Xposition Yposition Zposition Zrotation Xrotation Yrotation
				JOINT Head
				{
					OFFSET 0.000000 0.000000 2.173897
					CHANNELS 6 Xposition Yposition Zposition Zrotation Xrotation Yrotation
					End Site
					{
						OFFSET 0.000000 0.000000 8.298004
					}
				}
			}
			JOINT LeftCollar
			{
				OFFSET 2.142401 -0.572701 5.717800
				CHANNELS 6 Xposition Yposition Zposition Zrotation Xrotation Yrotation
				JOINT LeftShoulder
				{
					OFFSET 5.674000 0.000000 0.000000
					CHANNELS 6 Xposition Yposition Zposition Zrotation Xrotation Yrotation
					JOINT LeftElbow
					{
						OFFSET 0.000000 0.000000 -12.238701
						CHANNELS 6 Xposition Yposition Zposition Zrotation Xrotation Yrotation
						JOINT LeftWrist
						{
							OFFSET 0.000000 0.000000 -10.253700
							CHANNELS 6 Xposition Yposition Zposition Zrotation Xrotation Yrotation
							End Site
							{
								OFFSET 0.000000 0.000000 -2.173901
							}
						}
					}
				}
			}
			JOINT RightCollar
			{
				OFFSET -2.882599 -1.580101 6.695801
				CHANNELS 6 Xposition Yposition Zposition Zrotation Xrotation Yrotation
				JOINT RightShoulder
				{
					OFFSET -4.235600 0.000000 0.000000
					CHANNELS 6 Xposition Yposition Zposition Zrotation Xrotation Yrotation
					JOINT RightElbow
					{
						OFFSET 0.000000 0.000000 -10.709900
						CHANNELS 6 Xposition Yposition Zposition Zrotation Xrotation Yrotation
						JOINT RightWrist
						{
							OFFSET 0.000000 0.000000 -11.716801
							CHANNELS 6 Xposition Yposition Zposition Zrotation Xrotation Yrotation
							End Site
							{
								OFFSET 0.000000 0.000000 -2.173901
							}
						}
					}
				}
			}
		}
	}
	JOINT LeftHip
	{
		OFFSET 2.279499 0.210400 -2.475502
		CHANNELS 6 Xposition Yposition Zposition Zrotation Xrotation Yrotation
		JOINT LeftKnee
		{
			OFFSET 0.000000 -0.000004 -20.742800
			CHANNELS 6 Xposition Yposition Zposition Zrotation Xrotation Yrotation
			JOINT LeftAnkle
			{
				OFFSET 0.000000 0.000000 -16.666000
				CHANNELS 6 Xposition Yposition Zposition Zrotation Xrotation Yrotation
				End Site
				{
					OFFSET 0.000000 -8.310898 0.000000
				}
			}
		}
	}
	JOINT RightHip
	{
		OFFSET -1.961899 0.232300 -2.727402
		CHANNELS 6 Xposition Yposition Zposition Zrotation Xrotation Yrotation
		JOINT RightKnee
		{
			OFFSET 0.000000 -0.000004 -20.526800
			CHANNELS 6 Xposition Yposition Zposition Zrotation Xrotation Yrotation
			JOINT RightAnkle
			{
				OFFSET 0.000000 0.000000 -16.867300
				CHANNELS 6 Xposition Yposition Zposition Zrotation Xrotation Yrotation
				End Site
				{
					OFFSET 0.000000 -7.186401 0.000000
				}
			}
		}
	}
}
MOTION
Frames: 9
Frame Time: 0.041667
78.196632 67.798798 22.206186 -50.558969 18.009342 -10.093175 -0.637404 0.831595 5.390103 40.508448 41.495513 -19.228482 -0.000010 -0.000000 4.429895 -30.036983 -4.072439 -0.744467 -0.000003 -0.000006 10.301396 357.155701 30.194303 -6.202248 -0.000000 0.000004 2.173906 -357.929834 6.695171 2.822990 2.142399 -0.572709 5.717806 7.889783 26.463469 -23.863868 5.673998 -0.000003 -0.000009 130.994818 192.133085 77.535331 -0.000000 0.000003 -12.238701 -124.666279 -159.591168 -149.478553 -0.000001 0.000011 -10.253700 -114.454477 25.544781 -59.473059 -2.882601 -1.580109 6.695801 -8.326839 -36.665852 5.815455 -4.235614 0.000013 -0.000005 34.094709 14.993619 68.911636 -0.000005 0.000006 -10.709894 -57.186155 -8.322214 -61.518967 0.000004 -0.000001 -11.716799 29.951544 19.783351 45.316068 2.279506 0.210387 -2.475496 134.375475 -49.665318 139.338168 -0.000013 -0.000004 -20.742821 -120.751638 -6.691242 107.836714 -0.000008 0.000002 -16.665997 56.732624 14.752462 35.374748 -1.961890 0.232287 -2.727391 -125.291802 -25.765345 -93.948050 0.000007 0.000007 -20.526783 198.318914 14.986410 -155.570344 0.000003 -0.000006 -16.867294 -47.960134 15.080574 -20.033443
78.190407 67.779396 22.215080 -50.530426 18.068297 -10.143111 -0.637403 0.831607 5.390093 40.398120 41.513282 -19.136180 -0.000004 0.000001 4.429889 -30.002607 -4.087715 -0.744142 0.000004 0.000004 10.301398 357.165318 30.204220 -6.207723 -0.000002 -0.000000 2.173889 -358.001032 6.703079 2.850314 2.142391 -0.572696 5.717796 7.869870 26.414785 -23.827386 5.673995 0.000005 -0.000015 131.069349 191.991850 77.567767 -0.000002 -0.000005 -12.238695 -125.023990 -159.368859 -149.650674 -0.000005 -0.000001 -10.253702 -113.884962 25.371612 -59.548533 -2.882598 -1.580093 6.695788 -8.277928 -36.609073 5.875877 -4.235600 0.000013 0.000001 33.991929 15.047352 68.865300 0.000008 0.000010 -10.709901 -57.202069 -8.639406 -61.543276 -0.000002 0.000015 -11.716803 29.720363 19.801927 45.315744 2.279500 0.210410 -2.475514 134.357402 -49.602073 139.322772 0.000001 -0.000005 -20.742807 -120.745792 -6.723843 107.859383 -0.000002 0.000001 -16.666002 56.756140 14.660432 35.443009 -1.961897 0.232304 -2.727402 -125.352536 -25.721453 -93.972645 0.000001 -0.000001 -20.526798 198.492046 15.058614 -155.595288 0.000005 0.000003 -16.867298 -47.905567 15.032869 -19.968149
78.184425 67.759201 22.224182 -50.500363 18.140410 -10.199603 -0.637400 0.831614 5.390102 40.281502 41.525344 -19.034701 -0.000013 -0.000003 4.429896 -29.952835 -4.109077 -0.743908 -0.000008 -0.000005 10.301397 357.161301 30.229061 -6.234554 -0.000005 0.000005 2.173902 -358.141297 6.748528 2.882249 2.142390 -0.572703 5.717798 7.815115 26.380375 -23.756134 5.674003 -0.000003 -0.000011 131.155492 191.863210 77.581407 -0.000003 -0.000007 -12.238691 -125.648501 -159.016721 -149.890154 -0.000003 0.000010 -10.253700 -113.003376 25.253660 -59.650617 -2.882609 -1.580100 6.695792 -8.207045 -36.532411 5.992795 -4.235606 0.000015 0.000000 33.799949 15.017586 68.774643 0.000008 0.000004 -10.709892 -57.186561 -8.922218 -61.583096 0.000006 0.000003 -11.716799 29.593956 19.809855 45.320371 2.279511 0.210402 -2.475511 134.342103 -49.528280 139.313251 -0.000008 -0.000002 -20.742809 -120.745546 -6.729190 107.877203 -0.000001 -0.000002 -16.666000 56.724294 14.582254 35.523360 -1.961901 0.232310 -2.727399 -125.423378 -25.722967 -94.015027 0.000004 -0.000003 -20.526802 198.550608 15.094587 -155.596668 0.000002 -0.000001 -16.867296 -47.909334 14.997161 -19.942132
78.177711 67.738396 22.233587 -50.466967 18.223486 -10.258051 -0.637404 0.831609 5.390098 40.128536 41.531167 -18.909099 0.000001 -0.000007 4.429899 -29.881924 -4.133737 -0.743270 -0.000005 0.000008 10.301402 357.131249 30.269175 -6.250217 0.000003 -0.000003 2.173897 -358.335192 6.824135 2.904397 2.142406 -0.572696 5.717812 7.729635 26.343521 -23.665912 5.673999 0.000007 0.000003 131.270539 191.716266 77.609507 -0.000008 0.000000 -12.238703 -126.126396 -158.743445 -150.046484 0.000013 0.000000 -10.253704 -112.251106 25.196573 -59.762557 -2.882608 -1.580092 6.695798 -8.088173 -36.401042 6.150497 -4.235600 0.000006 0.000003 33.537134 14.919092 68.683173 0.000003 0.000002 -10.709907 -57.147079 -9.210366 -61.623258 -0.000010 0.000012 -11.716799 29.495858 19.815272 45.324490 2.279509 0.210398 -2.475505 134.329836 -49.447216 139.306298 -0.000009 0.000005 -20.742802 -120.744494 -6.723607 107.893029 -0.000014 0.000000 -16.665997 56.646990 14.517273 35.611305 -1.961904 0.232300 -2.727395 -125.502199 -25.670943 -94.069894 0.000005 -0.000006 -20.526798 198.602763 15.097617 -155.578254 0.000006 -0.000005 -16.867298 -47.959447 14.964538 -19.941600
78.171112 67.722092 22.241280 -50.447654 18.295411 -10.301980 -0.637412 0.831594 5.390096 39.964106 41.531529 -18.777457 -0.000008 -0.000005 4.429912 -29.759633 -4.166377 -0.740976 -0.000004 -0.000002 10.301401 357.092508 30.331128 -6.293532 -0.000002 0.000000 2.173884 -358.605531 6.963763 2.947785 2.142394 -0.572701 5.717801 7.564732 26.345706 -23.556996 5.674005 0.000002 -0.000008 131.426418 191.623758 77.623884 -0.000004 -0.000007 -12.238701 -126.182663 -158.720373 -149.938826 0.000005 0.000003 -10.253700 -112.007179 25.358810 -59.875112 -2.882605 -1.580099 6.695797 -7.885076 -36.182340 6.434598 -4.235612 0.000011 -0.000007 33.098492 14.538679 68.559964 0.000011 0.000013 -10.709894 -56.873425 -9.553672 -61.651036 -0.000002 0.000013 -11.716803 29.386605 19.821484 45.312721 2.279491 0.210393 -2.475507 134.323347 -49.388729 139.298129 -0.000008 0.000000 -20.742813 -120.748292 -6.664979 107.894265 0.000000 0.000011 -16.665995 56.499038 14.503073 35.657354 -1.961896 0.232293 -2.727407 -125.563793 -25.627310 -94.118873 0.000001 0.000006 -20.526808 198.581562 15.069636 -155.539554 0.000003 0.000001 -16.867300 -48.049530 14.953219 -19.967925
78.162003 67.706703 22.248186 -50.431784 18.357802 -10.336015 -0.637407 0.831602 5.390095 39.865103 41.518708 -18.699796 -0.000013 -0.000010 4.429896 -29.672558 -4.192485 -0.739482 -0.000001 0.000005 10.301407 357.028523 30.388666 -6.330729 -0.000005 0.000000 2.173895 -358.903109 7.108624 3.026282 2.142395 -0.572699 5.717816 7.431205 26.372909 -23.454195 5.673995 -0.000010 0.000009 131.522191 191.580837 77.616794 -0.000002 -0.000005 -12.238699 -126.129005 -158.770302 -149.828942 -0.000007 0.000003 -10.253696 -111.925750 25.540774 -59.993745 -2.882610 -1.580102 6.695809 -7.770956 -36.051378 6.652057 -4.235605 -0.000007 -0.000006 32.767737 14.141818 68.438379 0.000005 0.000009 -10.709893 -56.610804 -9.630842 -61.664614 -0.000004 0.000004 -11.716805 29.490059 19.813030 45.343912 2.279498 0.210409 -2.475506 134.316640 -49.349732 139.287952 -0.000006 0.000000 -20.742802 -120.753305 -6.574081 107.892407 -0.000007 0.000000 -16.666000 56.298060 14.511449 35.660459 -1.961899 0.232298 -2.727403 -125.615184 -25.591918 -94.152682 0.000000 -0.000007 -20.526798 198.532999 15.037095 -155.495827 0.000003 0.000001 -16.867290 -48.155074 14.934704 -20.007198
78.150215 67.692703 22.253790 -50.416703 18.404034 -10.360374 -0.637409 0.831598 5.390094 39.845995 41.497764 -18.691588 -0.000006 0.000004 4.429896 -29.628937 -4.208911 -0.738550 0.000003 -0.000002 10.301384 356.918611 30.436737 -6.325859 -0.000004 -0.000005 2.173896 -359.133204 7.243165 3.105799 2.142404 -0.572708 5.717794 7.345921 26.422706 -23.363639 5.673993 -0.000008 -0.000010 131.568814 191.575427 77.580751 0.000007 -0.000001 -12.238696 -125.883077 -158.891538 -149.656384 -0.000002 0.000006 -10.253696 -112.101914 25.715374 -60.078392 -2.882602 -1.580104 6.695787 -7.840337 -36.000998 6.618524 -4.235612 0.000006 -0.000007 32.648045 13.879405 68.472530 0.000004 0.000003 -10.709895 -56.509833 -9.312264 -61.676957 -0.000002 0.000013 -11.716801 29.892903 19.781288 45.405557 2.279490 0.210398 -2.475498 134.309960 -49.329313 139.272024 -0.000002 -0.000001 -20.742804 -120.742377 -6.491362 107.896048 -0.000005 0.000009 -16.666000 56.065526 14.536980 35.620096 -1.961902 0.232300 -2.727399 -125.655496 -25.571120 -94.165694 0.000001 -0.000016 -20.526794 198.461159 15.003311 -155.449874 0.000002 0.000001 -16.867294 -48.268346 14.905944 -20.055484
78.135925 67.679893 22.257980 -50.404252 18.430668 -10.372427 -0.637400 0.831603 5.390101 39.829832 41.478216 -18.700580 0.000003 0.000001 4.429894 -29.610673 -4.214823 -0.737340 -0.000012 0.000003 10.301395 356.829873 30.460496 -6.288753 -0.000004 -0.000000 2.173904 -359.277431 7.345109 3.161803 2.142396 -0.572696 5.717806 7.314996 26.450155 -23.323706 5.673998 0.000001 0.000004 131.593771 191.527971 77.590635 -0.000002 -0.000004 -12.238706 -125.338274 -159.138804 -149.414664 -0.000004 0.000011 -10.253698 -112.571906 25.918801 -60.143620 -2.882601 -1.580094 6.695794 -7.942600 -35.976478 6.487253 -4.235611 -0.000002 0.000000 32.681386 13.730190 68.574526 -0.000001 -0.000010 -10.709903 -56.442914 -9.048426 -61.642444 -0.000002 0.000007 -11.716805 30.144080 19.762326 45.449236 2.279504 0.210406 -2.475504 134.303949 -49.327093 139.253583 -0.000003 -0.000005 -20.742807 -120.714988 -6.428968 107.910534 -0.000007 0.000014 -16.666000 55.819342 14.581183 35.545954 -1.961885 0.232305 -2.727398 -125.681136 -25.563134 -94.153167 0.000007 -0.000005 -20.526798 198.379812 14.971146 -155.403879 -0.000001 0.000000 -16.867300 -48.375081 14.869131 -20.098670
78.119812 67.667603 22.260088 -50.399740 18.441256 -10.381235 -0.637403 0.831614 5.390091 39.881065 41.459252 -18.757866 -0.000001 -0.000006 4.429896 -29.628111 -4.214570 -0.736649 -0.000002 -0.000002 10.301402 356.754523 30.462418 -6.257265 -0.000001 -0.000002 2.173898 -359.342809 7.405833 3.196733 2.142395 -0.572697 5.717806 7.323596 26.496553 -23.300758 5.673997 0.000001 -0.000012 131.563350 191.512425 77.574632 0.000002 -0.000005 -12.238701 -124.946331 -159.297305 -149.268662 -0.000005 -0.000001 -10.253702 -112.910684 26.130782 -60.210720 -2.882601 -1.580103 6.695808 -8.131601 -36.047963 6.294844 -4.235609 0.000005 -0.000003 32.831920 13.658548 68.654466 0.000007 0.000005 -10.709898 -56.407397 -8.707128 -61.593341 -0.000004 0.000010 -11.716801 30.447081 19.735733 45.487427 2.279503 0.210404 -2.475508 134.300234 -49.334152 139.236015 -0.000007 -0.000006 -20.742813 -120.674594 -6.373486 107.935861 -0.000012 0.000014 -16.665997 55.549713 14.649660 35.445799 -1.961894 0.232301 -2.727401 -125.680713 -25.580310 -94.120874 -0.000001 -0.000003 -20.526802 198.354868 14.971136 -155.382760 0.000001 0.000005 -16.867310 -48.425522 14.846958 -20.099567
